<?xml version="1.0" encoding="UTF-8" standalone="no"?>
<svg width="54px" height="38px" viewBox="0 0 54 38" version="1.1" xmlns="http://www.w3.org/2000/svg" xmlns:xlink="http://www.w3.org/1999/xlink" xmlns:sketch="http://www.bohemiancoding.com/sketch/ns">
    <!-- Generator: Sketch 3.4.2 (15857) - http://www.bohemiancoding.com/sketch -->
    <title>Untitled 8</title>
    <desc>Created with Sketch.</desc>
    <defs></defs>
    <g id="Page-1" stroke="none" stroke-width="1" fill="none" fill-rule="evenodd" sketch:type="MSPage">
        <g id="noun_109994_cc" sketch:type="MSLayerGroup" fill="#E00F0F">
            <path d="M52.1590909,34.3809524 L1.84090909,34.3809524 C0.824113636,34.3809524 0,35.1910159 0,36.1904762 C0,37.1899365 0.824113636,38 1.84090909,38 L52.1590909,38 C53.1758864,38 54,37.1899365 54,36.1904762 C54,35.1910159 53.1758864,34.3809524 52.1590909,34.3809524 L52.1590909,34.3809524 Z M52.1590909,17.4920635 L1.84090909,17.4920635 C0.824113636,17.4920635 0,18.302127 0,19.3015873 C0,20.3010476 0.824113636,21.1111111 1.84090909,21.1111111 L52.1590909,21.1111111 C53.1758864,21.1111111 54,20.3010476 54,19.3015873 C54,18.302127 53.1758864,17.4920635 52.1590909,17.4920635 L52.1590909,17.4920635 Z M1.84090909,3.61904762 L52.1590909,3.61904762 C53.1758864,3.61904762 54,2.80898413 54,1.80952381 C54,0.810063492 53.1758864,0 52.1590909,0 L1.84090909,0 C0.824113636,0 0,0.810063492 0,1.80952381 C0,2.80898413 0.824113636,3.61904762 1.84090909,3.61904762 L1.84090909,3.61904762 Z" id="Shape" sketch:type="MSShapeGroup"></path>
        </g>
    </g>
</svg>